<svg width="146" height="25" viewBox="0 0 146 25" fill="none" xmlns="http://www.w3.org/2000/svg">
<path d="M0 8.51751C0 7.32236 0.233924 6.20732 0.702432 5.17271C1.17061 4.13843 1.80894 3.23615 2.61677 2.46587C3.4246 1.69591 4.38475 1.09266 5.49721 0.655468C6.60933 0.218922 7.80968 0 9.09791 0C10.5031 0 11.7732 0.253301 12.9094 0.758604C14.0453 1.26456 15.0111 2.00013 15.8074 2.96533C16.6033 3.93086 17.2182 5.10914 17.6517 6.49987C18.0848 7.89123 18.3016 9.47136 18.3016 11.2412C18.3016 13.4713 18.0732 15.4426 17.6166 17.155C17.16 18.8678 16.5154 20.3043 15.6844 21.4654C14.8528 22.6258 13.8402 23.5051 12.6458 24.1031C11.4514 24.7008 10.1165 24.9999 8.64097 24.9999C7.07157 24.9999 5.61978 24.6665 4.28497 24C2.94982 23.3328 1.82612 22.3793 0.912567 21.1378L3.61756 18.2412C4.17957 19.1149 4.90513 19.7928 5.79556 20.2757C6.68533 20.7583 7.65737 20.9996 8.71134 20.9996C10.2801 20.9996 11.527 20.3902 12.4525 19.172C13.3773 17.9535 13.863 16.2297 13.9102 13.9996C13.4417 14.8273 12.7508 15.4821 11.8376 15.9651C10.9244 16.448 9.87039 16.6893 8.67599 16.6893C7.43434 16.6893 6.28719 16.4824 5.23355 16.0685C4.1799 15.655 3.26634 15.0803 2.49353 14.3444C1.72073 13.6088 1.11147 12.7412 0.666749 11.7413C0.22236 10.7414 0 9.66726 0 8.51751ZM9.09824 3.89681C8.46586 3.89681 7.87411 4.01746 7.32432 4.25876C6.77354 4.50006 6.28786 4.83347 5.86626 5.25866C5.44467 5.68418 5.11097 6.17813 4.86515 6.74149C4.619 7.30485 4.49609 7.89675 4.49609 8.51719C4.49609 9.13795 4.619 9.71882 4.86515 10.2585C5.11097 10.7988 5.43872 11.2759 5.84875 11.6894C6.25845 12.1033 6.74447 12.4257 7.30681 12.6553C7.86882 12.8852 8.46586 12.9997 9.09824 12.9997C9.73063 12.9997 10.3277 12.8849 10.8897 12.6553C11.4517 12.4257 11.9374 12.1036 12.3474 11.6894C12.7568 11.2759 13.0852 10.7988 13.331 10.2585C13.5768 9.71882 13.7001 9.13795 13.7001 8.51719C13.7001 7.89642 13.5768 7.30485 13.331 6.74149C13.0852 6.17845 12.7515 5.68969 12.3299 5.27585C11.9086 4.86201 11.422 4.52925 10.8722 4.27595C10.3217 4.02329 9.73063 3.89681 9.09824 3.89681Z" fill="white"/>
<path d="M72.7974 8.51739C72.7974 7.32224 73.0313 6.2072 73.4998 5.17259C73.968 4.13831 74.6066 3.23603 75.4145 2.46575C76.2223 1.69579 77.1824 1.09254 78.2952 0.655345C79.407 0.2188 80.6074 -0.00012207 81.8956 -0.00012207C83.3008 -0.00012207 84.5709 0.253179 85.7071 0.758482C86.8427 1.26443 87.8085 2.00001 88.6051 2.96521C89.4007 3.93074 90.0159 5.10902 90.449 6.49974C90.8825 7.89111 91.0993 9.47124 91.0993 11.2411C91.0993 13.4712 90.8709 15.4424 90.4143 17.1549C89.9574 18.8677 89.3131 20.3041 88.4821 21.4652C87.6502 22.6257 86.6379 23.5049 85.4435 24.103C84.2491 24.7007 82.9142 24.9998 81.439 24.9998C79.8696 24.9998 78.4178 24.6663 77.0827 23.9998C75.7478 23.3327 74.6238 22.3792 73.7106 21.1377L76.4156 18.2411C76.9776 19.1148 77.7032 19.7927 78.5936 20.2756C79.483 20.7582 80.4554 20.9995 81.509 20.9995C83.0778 20.9995 84.3247 20.3901 85.2502 19.1719C86.1753 17.9534 86.661 16.2296 86.7082 13.9995C86.2394 14.8272 85.5488 15.482 84.6356 15.9649C83.7221 16.4479 82.6684 16.6892 81.474 16.6892C80.2327 16.6892 79.0856 16.4822 78.0316 16.0684C76.9779 15.6549 76.0644 15.0802 75.2916 14.3443C74.5188 13.6087 73.9092 12.7411 73.4651 11.7412C73.0197 10.7413 72.7974 9.66713 72.7974 8.51739ZM81.8956 3.89668C81.2632 3.89668 80.6715 4.01733 80.1217 4.25863C79.5712 4.49993 79.0852 4.83334 78.664 5.25854C78.2424 5.68406 77.9087 6.17801 77.6628 6.74137C77.417 7.30473 77.2941 7.89663 77.2941 8.51707C77.2941 9.13783 77.417 9.7187 77.6628 10.2584C77.9087 10.7987 78.2361 11.2758 78.6464 11.6893C79.0558 12.1032 79.5422 12.4255 80.1042 12.6552C80.6662 12.8851 81.2636 12.9996 81.8959 12.9996C82.5283 12.9996 83.1257 12.8848 83.6874 12.6552C84.2494 12.4255 84.7354 12.1035 85.1454 11.6893C85.5548 11.2758 85.8829 10.7987 86.129 10.2584C86.3749 9.7187 86.4978 9.13783 86.4978 8.51707C86.4978 7.8963 86.3749 7.30473 86.129 6.74137C85.8832 6.17833 85.5495 5.68957 85.1279 5.27573C84.7067 4.86188 84.2203 4.52912 83.6702 4.27582C83.1191 4.02317 82.528 3.89668 81.8956 3.89668Z" fill="white"/>
<path d="M24.7892 23.1749C24.0253 23.1749 23.3123 23.0514 22.6492 22.8049C21.986 22.5584 21.4135 22.2133 20.9311 21.7696C20.449 21.3256 20.072 20.808 19.8008 20.2161C19.5295 19.6245 19.394 18.9736 19.394 18.2633C19.394 17.5336 19.5596 16.8577 19.8913 16.2363C20.2227 15.6152 20.6849 15.0875 21.2777 14.6535C21.8701 14.2196 22.5784 13.8794 23.4028 13.6329C24.2265 13.3864 25.1308 13.2628 26.1154 13.2628C26.8185 13.2628 27.5067 13.3222 28.1801 13.4402C28.8531 13.5586 29.4508 13.7266 29.9735 13.9436V13.0559C29.9735 12.0307 29.6768 11.2413 29.0844 10.6889C28.4913 10.1369 27.6121 9.86029 26.4468 9.86029C25.6029 9.86029 24.7786 10.0085 23.9754 10.304C23.1715 10.5998 22.3478 11.034 21.5037 11.6061L20.268 9.0913C22.2973 7.76999 24.4878 7.10901 26.839 7.10901C29.1095 7.10901 30.8728 7.65648 32.129 8.75108C33.3845 9.84569 34.0129 11.4287 34.0129 13.4999V18.3227C34.0129 18.7368 34.0929 19.0326 34.2541 19.2104C34.4147 19.3878 34.6959 19.487 35.098 19.5061V22.8792C34.716 22.9576 34.3595 23.0121 34.0281 23.042C33.6964 23.0715 33.41 23.0864 33.1691 23.0864C32.4052 23.0663 31.8224 22.8937 31.4206 22.5684C31.0185 22.2428 30.7674 21.8043 30.667 21.2517L30.5768 20.3935C29.873 21.301 29.0193 21.9911 28.0149 22.4647C27.0094 22.9385 25.9347 23.1749 24.7892 23.1749ZM25.9347 20.2754C26.6176 20.2754 27.2655 20.1571 27.8787 19.9203C28.4913 19.6839 28.9684 19.3683 29.3104 18.9736C29.7521 18.6382 29.9735 18.2636 29.9735 17.8491V16.0738C29.4914 15.896 28.9684 15.7533 28.4061 15.6447C27.843 15.5367 27.3005 15.4819 26.7785 15.4819C25.7334 15.4819 24.8794 15.7141 24.2166 16.1776C23.5535 16.6413 23.2217 17.2277 23.2217 17.938C23.2217 18.6087 23.4828 19.1659 24.0054 19.6096C24.5278 20.0533 25.1708 20.2754 25.9347 20.2754Z" fill="white"/>
<path d="M51.8561 22.8792H47.817V14.1804C47.817 12.9376 47.5956 12.0308 47.1535 11.458C46.7115 10.8862 46.0992 10.5998 45.3152 10.5998C44.9131 10.5998 44.5014 10.679 44.0795 10.8366C43.6576 10.9945 43.2604 11.2167 42.8887 11.5024C42.517 11.7885 42.18 12.1287 41.8787 12.5231C41.5774 12.9178 41.356 13.3514 41.2159 13.8249V22.8792H37.1768V7.37502H40.8241V10.245C41.4065 9.25904 42.2504 8.48974 43.3559 7.9374C44.4608 7.3854 45.7067 7.10907 47.0934 7.10907C48.0777 7.10907 48.8815 7.28648 49.505 7.64162C50.1278 7.99676 50.6099 8.46022 50.9518 9.03234C51.2931 9.60478 51.5294 10.2554 51.6599 10.9851C51.7907 11.7152 51.8561 12.4547 51.8561 13.2042V22.8792Z" fill="white"/>
<path d="M61.1701 23.1749C60.0851 23.1749 59.085 22.9676 58.1711 22.5535C57.2562 22.1393 56.4682 21.5675 55.8048 20.8374C55.1416 20.108 54.6242 19.2544 54.2525 18.2778C53.8805 17.3016 53.6948 16.2511 53.6948 15.1267C53.6948 14.0022 53.8706 12.9572 54.2225 11.9904C54.5737 11.0242 55.0614 10.1758 55.6845 9.44605C56.307 8.71631 57.0507 8.14419 57.915 7.7297C58.7787 7.31554 59.7236 7.10829 60.7482 7.10829C61.8937 7.10829 62.9335 7.38462 63.8679 7.93662C64.8022 8.48928 65.5301 9.20896 66.0528 10.0963V1.27979H70.0919V18.3223C70.0919 18.7364 70.1722 19.0322 70.3331 19.21C70.4934 19.3874 70.7749 19.4866 71.177 19.5057V22.8788C70.4131 23.0166 69.7701 23.086 69.2481 23.086C68.5044 23.0659 67.9265 22.8982 67.5148 22.583C67.1028 22.2674 66.8468 21.8237 66.7463 21.2516L66.6561 20.1865C66.073 21.1731 65.2892 21.9174 64.305 22.4205C63.3201 22.9235 62.275 23.1749 61.1701 23.1749ZM62.2248 19.8018C62.6064 19.8018 62.9982 19.7383 63.4007 19.6095C63.8024 19.4814 64.1738 19.2988 64.5158 19.0621C64.8571 18.8256 65.1686 18.5493 65.4501 18.2334C65.7313 17.9182 65.9421 17.5727 66.0832 17.1981V13.4995C65.7412 12.6319 65.1835 11.9119 64.4104 11.3398C63.6366 10.7677 62.8281 10.4816 61.9839 10.4816C61.3813 10.4816 60.8232 10.6101 60.3111 10.8663C59.7986 11.1228 59.3619 11.4728 59.0001 11.9165C58.6383 12.3605 58.3568 12.8687 58.1559 13.4402C57.955 14.0129 57.8546 14.6045 57.8546 15.2158C57.8546 15.8668 57.9646 16.4684 58.186 17.0204C58.407 17.5727 58.7136 18.056 59.1055 18.4705C59.4973 18.8843 59.9592 19.21 60.4918 19.4467C61.0238 19.6838 61.6016 19.8018 62.2248 19.8018Z" fill="white"/>
<path d="M113.136 17H112.001V7.66895H113.136V17ZM116.076 17H114.941V7.66895H116.247L121.353 15.4619V7.66895H122.481V17H121.175L116.076 9.2207V17ZM127.129 17H124.292V7.66895H127.164C130.219 7.66895 132.085 9.28223 132.085 12.3379C132.085 15.2432 130.335 17 127.129 17ZM125.427 16.1592H126.952C129.419 16.1592 130.937 14.9834 130.937 12.3379C130.937 9.66504 129.413 8.5166 126.986 8.5166H125.427V16.1592ZM134.628 17H133.494V7.66895H134.628V17ZM138.231 13.5068H142.237L140.268 8.57812H140.186L138.231 13.5068ZM135.558 17L139.543 7.66895H140.924L144.889 17H143.652L142.565 14.3066H137.889L136.802 17H135.558Z" fill="white"/>
<line x1="100.85" y1="-6.10461e-05" x2="100.85" y2="24.9999" stroke="white" stroke-width="0.5"/>
</svg>
